<svg width="16" height="18" viewBox="0 0 16 18" fill="none" xmlns="http://www.w3.org/2000/svg">
<path d="M9.71289 16.25C9.63041 16.5243 9.48147 16.7792 9.27441 16.9902C8.93318 17.3152 8.47614 17.4999 8.00195 17.5C7.51611 17.5 7.05412 17.3192 6.73438 16.9961C6.52452 16.784 6.37322 16.5267 6.29004 16.25H9.71289ZM8.00195 0.5C8.36185 0.50011 8.64453 0.789897 8.64453 1.125V2.21094L9.04688 2.29004C11.4283 2.76295 13.2168 4.83816 13.2168 7.3125V7.97656C13.2169 9.64376 13.8003 11.2557 14.8535 12.5449L15.0703 12.7988L15.333 13.0908V13.0918L15.3418 13.1016C15.4845 13.2524 15.5345 13.4651 15.4756 13.6689L15.4443 13.7559C15.3446 13.9765 15.1143 14.125 14.8594 14.125H1.14355C0.914203 14.1249 0.697853 13.9981 0.589844 13.834L0.550781 13.7617C0.466891 13.5691 0.488878 13.3365 0.602539 13.1641L0.65625 13.0938L0.658203 13.0918L0.921875 12.7988L0.920898 12.7979C2.12251 11.4694 2.78703 9.75434 2.78711 7.97656V7.3125C2.78711 4.83817 4.57462 2.76296 6.95605 2.29004L7.3584 2.21094V1.125C7.3584 0.789834 7.64196 0.5 8.00195 0.5Z" stroke="#838383"/>
</svg>
