<svg width="16" height="15" viewBox="0 0 16 15" fill="none" xmlns="http://www.w3.org/2000/svg">
<path d="M5.5 9.5V10C5.5 10.8293 6.17073 11.5 7 11.5H9C9.82927 11.5 10.5 10.8293 10.5 10V9.5H15.5V13C15.5 13.827 14.827 14.5 14 14.5H2C1.17302 14.5 0.5 13.827 0.5 13V9.5H5.5ZM5.75 0.5H10.25C10.9395 0.5 11.5 1.06052 11.5 1.75V3.5H14C14.827 3.5 15.5 4.17302 15.5 5V7.5H0.5V5C0.5 4.17302 1.17302 3.5 2 3.5H4.5V1.75C4.5 1.06052 5.06052 0.5 5.75 0.5ZM5.75 1C5.33636 1 5 1.33636 5 1.75V3.5H11V1.75C11 1.33636 10.6636 1 10.25 1H5.75Z" stroke="white"/>
</svg>
