<svg width="24" height="24" viewBox="0 0 24 24" fill="none" xmlns="http://www.w3.org/2000/svg">
<path d="M4.25892 16.5934C3.14073 14.7084 2.74913 12.48 3.15765 10.3267C3.56618 8.17341 4.74672 6.24331 6.47761 4.89884C8.2085 3.55437 10.3707 2.88801 12.5581 3.0249C14.7455 3.16178 16.8077 4.09249 18.3575 5.64225C19.9073 7.19202 20.838 9.25423 20.9749 11.4417C21.1118 13.6291 20.4454 15.7912 19.101 17.5221C17.7565 19.253 15.8264 20.4336 13.6731 20.8421C11.5198 21.2507 9.29146 20.8591 7.40646 19.7409L7.40648 19.7408L4.29805 20.6289C4.16944 20.6657 4.03335 20.6673 3.90387 20.6338C3.7744 20.6002 3.65625 20.5327 3.56167 20.4381C3.4671 20.3435 3.39953 20.2254 3.36598 20.0959C3.33243 19.9664 3.33412 19.8303 3.37086 19.7017L4.25898 16.5933L4.25892 16.5934Z" stroke="white" stroke-width="1.5" stroke-linecap="round" stroke-linejoin="round"/>
<path d="M12 11.625C12.2071 11.625 12.375 11.7929 12.375 12C12.375 12.2071 12.2071 12.375 12 12.375C11.7929 12.375 11.625 12.2071 11.625 12C11.625 11.7929 11.7929 11.625 12 11.625Z" fill="white" stroke="white" stroke-width="1.5"/>
<path d="M7.5 11.625C7.70711 11.625 7.875 11.7929 7.875 12C7.875 12.2071 7.70711 12.375 7.5 12.375C7.29289 12.375 7.125 12.2071 7.125 12C7.125 11.7929 7.29289 11.625 7.5 11.625Z" fill="white" stroke="white" stroke-width="1.5"/>
<path d="M16.5 11.625C16.7071 11.625 16.875 11.7929 16.875 12C16.875 12.2071 16.7071 12.375 16.5 12.375C16.2929 12.375 16.125 12.2071 16.125 12C16.125 11.7929 16.2929 11.625 16.5 11.625Z" fill="white" stroke="white" stroke-width="1.5"/>
</svg>
