<svg width="16" height="19" viewBox="0 0 16 19" fill="none" xmlns="http://www.w3.org/2000/svg">
<path d="M6.36816 11.5566H9.63184C12.7387 11.5566 15.2498 14.0607 15.25 17.1445C15.25 17.31 15.1142 17.4501 14.9395 17.4502H1.06055C0.885827 17.4501 0.75 17.31 0.75 17.1445C0.750193 14.0607 3.26134 11.5566 6.36816 11.5566ZM8 0.75C8.95131 0.75 9.86555 1.10263 10.5664 1.73438L10.7031 1.86426C11.4193 2.57711 11.8212 3.5432 11.8213 4.5498C11.8213 5.55654 11.4194 6.52339 10.7031 7.23633C9.98676 7.94922 9.0145 8.35059 8 8.35059C7.04874 8.35059 6.13444 7.99788 5.43359 7.36621L5.29688 7.23633C4.5806 6.52339 4.17871 5.55654 4.17871 4.5498C4.1788 3.60614 4.5318 2.69816 5.16602 2.00098L5.29688 1.86426C6.01325 1.15129 6.98544 0.75 8 0.75Z" stroke="white" stroke-width="1.5"/>
</svg>
