<svg width="20" height="17" viewBox="0 0 20 17" fill="none" xmlns="http://www.w3.org/2000/svg">
<path d="M12.4268 0.553711C12.6375 0.351159 12.9842 0.353397 13.1934 0.558594L13.874 1.22656V1.22363L18.1846 5.46094C20.0126 7.25733 20.0702 10.1066 18.3564 11.9688L18.1846 12.1455L13.8105 16.4443C13.6275 16.6241 13.3393 16.6483 13.1289 16.5156L13.0439 16.4492C12.8647 16.2767 12.8416 16.0125 12.9736 15.8164L13.0391 15.7363H13.04L17.4102 11.4375C18.847 10.0249 18.8919 7.77735 17.5449 6.3125L17.4102 6.17285L12.4229 1.2666L12.3564 1.1875C12.243 1.01928 12.2436 0.800504 12.3594 0.632812L12.4268 0.553711ZM1.875 0.400391H7.71289C8.20487 0.400391 8.67687 0.564983 9.0498 0.861328L9.2041 0.996094L15.7646 7.37109C16.5285 8.11325 16.5767 9.28269 15.9082 10.0781L15.7646 10.2314L10.5508 15.2969C9.78104 16.0447 8.56061 16.0917 7.73438 15.4375L7.57422 15.2969L1.0127 8.92285L1.01172 8.9209L0.87207 8.77246C0.565931 8.41226 0.400391 7.96247 0.400391 7.49414V1.82129C0.400436 1.09598 0.970773 0.481381 1.72168 0.407227L1.875 0.400391ZM4.37402 2.63574C3.99437 2.63577 3.62682 2.76407 3.33301 2.99805L3.21191 3.10449C2.90131 3.40628 2.72461 3.81809 2.72461 4.25C2.72464 4.6279 2.85965 4.99047 3.10156 5.27734L3.21191 5.39551C3.52208 5.69677 3.94027 5.86423 4.37402 5.86426C4.7536 5.86426 5.12124 5.73582 5.41504 5.50195L5.53613 5.39551C5.84671 5.09375 6.0234 4.68186 6.02344 4.25C6.02344 3.87206 5.88841 3.50956 5.64648 3.22266L5.53613 3.10449C5.22593 2.8032 4.80782 2.63574 4.37402 2.63574Z" stroke="white" stroke-width="0.8"/>
</svg>
