<svg width="32" height="32" viewBox="0 0 32 32" fill="none" xmlns="http://www.w3.org/2000/svg">
<path d="M16.9951 5.4541L17.0557 5.46484C17.1957 5.49832 17.3136 5.5914 17.3789 5.71875L17.4033 5.77539L18.3359 8.33984C18.3861 8.47921 18.3711 8.63298 18.2959 8.75879C18.238 8.85519 18.1513 8.9272 18.0498 8.96582L17.9443 8.99316L16.0898 9.25781L16.0391 10.2383C19.1366 11.0096 21.0226 12.1662 22.2959 13.1436C22.9535 13.6483 23.4144 14.0759 23.8691 14.4482C24.2804 14.785 24.7249 15.1122 25.2217 15.1709L25.418 15.1943L25.5771 15.0771L31.3008 10.8545L29.126 16.4746L29.0557 16.6553L29.126 16.8359L31.3008 22.4551L25.5771 18.2334L25.418 18.1162L25.2217 18.1387C24.7198 18.198 24.2701 18.5326 23.8535 18.875C23.3955 19.2515 22.9202 19.6911 22.251 20.2012C20.9489 21.1936 19.012 22.3648 15.8193 23.126L14.8281 23.3623L15.6221 24.002L16.916 25.0439V25.043C17.0368 25.1404 17.1049 25.2912 17.0986 25.4492C17.0924 25.5682 17.0447 25.6789 16.9658 25.7627L16.877 25.8369H16.876L15.9102 26.4688C15.7931 26.5452 15.6501 26.5685 15.5146 26.5332H15.5156C15.4148 26.5064 15.3264 26.4485 15.2617 26.3691L15.2051 26.2832V26.2822L13.9395 23.8164L13.7842 23.5146L13.4473 23.5469C12.0617 23.6786 10.7434 23.5728 9.51367 23.3047C9.65191 23.0796 9.78303 22.8576 9.90332 22.6367L10.1191 22.2236C11.0933 20.2821 11.3974 18.5512 11.3975 17.2646C11.3975 16.8745 11.3699 16.523 11.3223 16.2119L11.2686 15.915V15.9131L11.2363 15.7949C11.0621 15.2563 10.5306 14.9103 9.96582 14.9727L9.84473 14.9922C9.23662 15.1216 8.83697 15.6896 8.90234 16.293L8.92188 16.4141L8.92285 16.417C8.96396 16.6057 9 16.8959 9 17.2646C8.99996 18.121 8.80823 19.3731 8.12012 20.8506L7.97559 21.1484C7.74896 21.5993 7.47243 22.0689 7.14258 22.5566C5.23977 21.7613 3.65224 20.6158 2.49902 19.4902C1.88608 18.892 1.4012 18.3052 1.05957 17.7881C0.72937 17.2882 0.556146 16.8865 0.50293 16.6201C0.511272 16.5038 0.559279 16.3156 0.685547 16.0537C0.821173 15.7724 1.02858 15.4407 1.30859 15.0762C1.86816 14.3478 2.69304 13.518 3.73438 12.7314C5.81929 11.1566 8.72479 9.78918 12.0283 9.7168L12.2207 9.71191L12.3604 9.58105L16.6045 5.58398L16.6055 5.58496C16.7112 5.48558 16.8536 5.43854 16.9951 5.4541ZM4.77637 14.5244C3.9212 14.5244 3.22754 15.218 3.22754 16.0732C3.2277 16.927 3.92091 17.622 4.77637 17.6221C5.63177 17.6221 6.32503 16.9271 6.3252 16.0732C6.3252 15.218 5.63158 14.5244 4.77637 14.5244Z" fill="#BBEBC0" stroke="#23BD33"/>
</svg>
