<svg width="16" height="17" viewBox="0 0 16 17" fill="none" xmlns="http://www.w3.org/2000/svg">
<path d="M8.00195 0.5C8.34153 0.500012 8.67565 0.52069 9.00293 0.561523L9.32812 0.609375H9.33008C9.39321 0.619685 9.45705 0.661879 9.49609 0.733398L9.52539 0.814453L9.94043 2.70996L9.99609 2.96582L10.2383 3.06641C10.7202 3.265 11.1721 3.52818 11.582 3.84375L11.79 4.00293L12.0391 3.92383L13.8857 3.33594C13.9705 3.30894 14.0524 3.32312 14.1113 3.36035L14.1621 3.4043C14.4132 3.7087 14.6424 4.03095 14.8467 4.37109V4.37207L14.998 4.63184V4.63281C15.1564 4.91894 15.2957 5.21327 15.417 5.5166L15.4863 5.70508C15.5097 5.76886 15.503 5.84639 15.4619 5.91406L15.4092 5.97852L15.4062 5.98047L13.9707 7.28906L13.7783 7.46484L13.8125 7.72363C13.8463 7.97877 13.8643 8.23951 13.8643 8.50195C13.8642 8.76418 13.8462 9.02436 13.8125 9.2793L13.7783 9.53906L13.9707 9.71484L15.4062 11.0234L15.4092 11.0254C15.4739 11.0837 15.5029 11.1601 15.5 11.2305L15.4863 11.2979C15.3505 11.6659 15.1865 12.0196 14.9971 12.3623L14.8467 12.6221C14.6925 12.8794 14.5241 13.1264 14.3428 13.3633L14.1572 13.5967L14.1562 13.5986C14.1165 13.647 14.0478 13.6806 13.9668 13.6787L13.8828 13.6641L12.0361 13.0762L11.7861 12.9971L11.5791 13.1562C11.1691 13.4719 10.7164 13.735 10.2344 13.9336L9.99316 14.0342L9.93652 14.29L9.52246 16.1855C9.50257 16.2761 9.45003 16.3379 9.38965 16.3691L9.32715 16.3906H9.3252C8.89477 16.4625 8.45113 16.5 7.99805 16.5C7.65847 16.5 7.32435 16.4793 6.99707 16.4385L6.67188 16.3906H6.66992C6.60679 16.3803 6.54295 16.3381 6.50391 16.2666L6.47461 16.1855L6.05957 14.29L6.00391 14.0342L5.76172 13.9336L5.40625 13.7734C5.05642 13.6008 4.7255 13.393 4.41797 13.1562L4.20996 12.9971L3.95996 13.0771L2.11621 13.668C2.03199 13.6945 1.95121 13.6795 1.89258 13.6426L1.8418 13.5986C1.58901 13.2922 1.35859 12.9677 1.15332 12.625H1.15234L1.00098 12.3623C0.859752 12.1065 0.732837 11.8446 0.621094 11.5752L0.513672 11.3008C0.490488 11.2369 0.496864 11.1594 0.538086 11.0918L0.59082 11.0283L0.59375 11.0264L2.0293 9.71777L2.22168 9.54199L2.1875 9.2832C2.15368 9.02437 2.13576 8.76401 2.13574 8.50195C2.13574 8.23951 2.15374 7.97878 2.1875 7.72363L2.22168 7.46484L2.0293 7.28906L0.59375 5.98047L0.59082 5.97852L0.538086 5.91406C0.497211 5.8467 0.490627 5.76968 0.513672 5.70605C0.649112 5.33915 0.812276 4.98632 1.00098 4.64453L1.15234 4.38086L1.15332 4.38184C1.30746 4.12452 1.4759 3.87751 1.65723 3.64062L1.84277 3.40625L1.84375 3.40527C1.88345 3.35675 1.95209 3.3223 2.0332 3.32422L2.11719 3.33887L3.96387 3.92676L4.21387 4.00586L4.4209 3.84668C4.83089 3.53103 5.28362 3.26795 5.76562 3.06934L6.00684 2.96973L6.06348 2.71387L6.47754 0.817383C6.49751 0.726938 6.54999 0.664941 6.61035 0.633789L6.67285 0.613281L6.67871 0.612305C7.10675 0.537761 7.54896 0.5 8.00195 0.5ZM8.00195 5.34473C6.25957 5.34473 4.84961 6.75872 4.84961 8.50195C4.84977 10.2451 6.25967 11.6582 8.00195 11.6582C9.7441 11.658 11.1541 10.245 11.1543 8.50195C11.1543 6.75881 9.7442 5.34489 8.00195 5.34473Z" stroke="white"/>
</svg>
