<svg width="18" height="18" viewBox="0 0 18 18" fill="none" xmlns="http://www.w3.org/2000/svg">
<path d="M12.125 8.99984C12.125 9.56126 12.1014 10.107 12.0588 10.6339C12.0382 10.8894 11.8227 11.0832 11.5664 11.0832H6.43136C6.17597 11.0832 5.9609 10.8908 5.93998 10.6362C5.89663 10.1086 5.87496 9.56208 5.87496 8.99984C5.87496 8.43841 5.89854 7.8927 5.94111 7.36576C5.96175 7.11028 6.17723 6.9165 6.43355 6.9165H11.5686C11.824 6.9165 12.039 7.10892 12.0599 7.36346C12.1033 7.89111 12.125 8.43759 12.125 8.99984ZM13.1108 7.46792C13.0891 7.17252 13.3198 6.9165 13.616 6.9165H16.6824C16.9104 6.9165 17.1111 7.07037 17.1577 7.29348C17.273 7.84486 17.3333 8.41482 17.3333 8.99984C17.3333 9.58486 17.273 10.1548 17.1577 10.7062C17.1111 10.9293 16.9104 11.0832 16.6824 11.0832H13.616C13.3198 11.0832 13.0891 10.8272 13.1108 10.5318C13.1476 10.0332 13.1666 9.52169 13.1666 8.99984C13.1666 8.47799 13.1476 7.96651 13.1108 7.46792ZM16.7278 5.87484H13.3568C13.1105 5.87484 12.9017 5.69519 12.8578 5.45284C12.6307 4.2006 12.286 3.0844 11.8549 2.17201C11.6526 1.74397 12.0453 1.22577 12.4754 1.42363C14.3982 2.30823 15.9276 3.90211 16.7233 5.87181C16.7241 5.87364 16.7259 5.87484 16.7278 5.87484ZM11.7668 5.29416C11.8285 5.59699 11.5929 5.87484 11.2838 5.87484H6.71637C6.40722 5.87484 6.17157 5.59684 6.23368 5.29399C6.42809 4.34602 6.69257 3.50014 7.00452 2.79216C7.34631 2.02393 7.72717 1.46729 8.09501 1.11572C8.45959 0.770671 8.76233 0.666504 8.99996 0.666504C9.23759 0.666504 9.54032 0.770671 9.90491 1.11572C10.2727 1.46729 10.6536 2.02393 10.9954 2.79216C11.3102 3.49781 11.573 4.34376 11.7668 5.29416ZM5.14216 5.45284C5.09821 5.69519 4.88938 5.87484 4.64308 5.87484H2.01395C1.65932 5.87484 1.41897 5.51604 1.58086 5.20052C2.43259 3.5405 3.82409 2.20449 5.525 1.42285C5.9551 1.22521 6.34763 1.74341 6.14537 2.17136C5.7141 3.08387 5.36928 4.2003 5.14216 5.45284ZM0.842199 7.29348C0.888854 7.07037 1.08953 6.9165 1.31747 6.9165H4.3839C4.68009 6.9165 4.91086 7.17252 4.88907 7.46792C4.85231 7.96651 4.83329 8.47799 4.83329 8.99984C4.83329 9.52169 4.85231 10.0332 4.88907 10.5318C4.91086 10.8272 4.68009 11.0832 4.3839 11.0832H1.31747C1.08953 11.0832 0.888854 10.9293 0.842199 10.7062C0.726901 10.1548 0.666626 9.58486 0.666626 8.99984C0.666626 8.41482 0.726901 7.84486 0.842199 7.29348ZM7.00452 15.2059C7.00452 15.2048 7.00429 15.2038 7.00386 15.2028C6.68949 14.4978 6.42706 13.6529 6.23347 12.7057C6.17156 12.4028 6.40722 12.1248 6.71637 12.1248H11.2835C11.5927 12.1248 11.8283 12.4028 11.7662 12.7057C11.5718 13.6536 11.3073 14.499 10.9954 15.2043C10.6536 15.9725 10.2727 16.5291 9.90491 16.8807C9.54032 17.229 9.23759 17.3332 8.99996 17.3332C8.76233 17.3332 8.45959 17.229 8.09501 16.884C7.72741 16.5326 7.34681 15.9765 7.00518 15.209C7.00475 15.208 7.00452 15.207 7.00452 15.2059ZM4.64308 12.1248C4.88938 12.1248 5.09821 12.3045 5.14216 12.5468C5.36928 13.7994 5.7141 14.9158 6.14537 15.8283C6.34763 16.2563 5.9551 16.7745 5.525 16.5768C3.82409 15.7952 2.43259 14.4592 1.58086 12.7992C1.41897 12.4836 1.65932 12.1248 2.01395 12.1248H4.64308ZM15.986 12.1248C16.3406 12.1248 16.5809 12.4836 16.4191 12.7992C15.5677 14.4585 14.1771 15.7942 12.4786 16.5759C12.0486 16.7739 11.6556 16.2555 11.8576 15.8274C12.2881 14.9149 12.632 13.7985 12.8606 12.5461C12.9047 12.3041 13.1134 12.1248 13.3594 12.1248H15.986Z" fill="#1D6DB6"/>
</svg>
