<svg width="24" height="22" viewBox="0 0 24 22" fill="none" xmlns="http://www.w3.org/2000/svg">
<path d="M9.88574 15.3418C11.0107 15.8772 12.5509 15.9869 13.8799 15.4209C14.4186 15.9158 14.8666 16.6636 15.0879 17.7168L15.1338 17.9609C15.3293 19.1156 15.0225 19.8933 14.4824 20.4521L14.3711 20.5605C13.7447 21.1436 12.7796 21.4871 11.7812 21.5L11.5947 21.498C10.7272 21.4735 9.91538 21.2007 9.35059 20.7344L9.2334 20.6318C8.68589 20.1205 8.33192 19.3764 8.48047 18.207L8.51758 17.9678C8.73744 16.7243 9.25772 15.8726 9.88574 15.3418ZM14.1152 10.752C14.1259 10.7517 14.1338 10.7518 14.1396 10.752L14.2227 10.7598L14.3379 10.7803C14.4411 10.8013 14.5516 10.8385 14.6816 10.8887L13.1533 13.6797C12.759 13.841 12.2768 13.9034 11.7969 13.877C11.3204 13.8507 10.8976 13.7398 10.6143 13.5996L9.01465 10.7646L9.10156 10.7539C9.29081 10.7443 9.5266 10.7919 9.86914 11.0967V11.0977L10.1494 11.3496L10.4648 11.6318L10.7959 11.3682L11.0908 11.1328C11.3368 10.9366 11.527 10.8445 11.6621 10.8086L11.7793 10.79C11.876 10.7859 12.0024 10.7974 12.2188 10.9814L12.3164 11.0713L12.6396 11.3857L13.001 11.7373L13.3496 11.3721L13.6602 11.0459L13.6611 11.0469L13.6621 11.0459C13.8004 10.9005 13.8973 10.8286 13.9639 10.793C13.9929 10.7774 14.0186 10.768 14.043 10.7617L14.1152 10.752ZM20.5742 4.04297L20.126 3.49414L19.8311 3.13281L19.4502 3.40234C17.4471 4.82265 16.0475 6.26191 15.5889 8.24902C15.2486 8.14825 14.9161 8.07487 14.5938 8.03125C15.0915 6.83809 15.6414 5.99198 16.2842 5.30176C17.0397 4.49058 17.9436 3.87008 19.1123 3.14844L19.5986 2.84863L19.2373 2.40625L18.7314 1.78711L22.0811 0.87207L20.5742 4.04297ZM5.72559 1.60742L5.34277 2.2002L5.01855 2.70215L5.57031 2.93262C6.56363 3.34777 7.48581 4.38187 8.22461 5.56543C8.72418 6.36579 9.11186 7.19305 9.36523 7.85156C9.20009 7.83658 9.03731 7.83448 8.87305 7.84668C8.64432 7.86369 8.42294 7.90802 8.19824 7.97656C8.09367 7.32588 7.84076 6.63444 7.48047 5.96191C6.97867 5.02526 6.25216 4.08675 5.36621 3.29004L4.93945 2.90625L4.61719 3.38281L4.13281 4.09961L2.05762 0.918945L5.72559 1.60742ZM13.4805 3.85645L12.6953 3.80273L12.2109 3.76953L12.1631 4.25195C12.0699 5.18622 12.0059 5.84196 12.0303 6.48145C12.0473 6.92701 12.1092 7.35681 12.2217 7.86621C11.9531 7.84286 11.6978 7.8483 11.4414 7.87109C11.3843 6.33344 11.4916 5.47773 11.8652 4.27441L12.043 3.70312L11.4492 3.62988L10.8457 3.55469L12.4941 1.10059L13.4805 3.85645Z" stroke="white"/>
</svg>
