<svg width="16" height="19" viewBox="0 0 16 19" fill="none" xmlns="http://www.w3.org/2000/svg">
<path d="M4.57129 0.400391H11.4287C12.5172 0.400391 13.2945 0.400907 13.8848 0.478516C14.3917 0.545203 14.7144 0.663731 14.9531 0.854492L15.0508 0.94043C15.2972 1.18145 15.4431 1.50958 15.5205 2.07227C15.5996 2.6474 15.5996 3.40542 15.5996 4.4707V14.5293C15.5996 15.5946 15.5996 16.3526 15.5205 16.9277C15.4528 17.4202 15.3327 17.7329 15.1387 17.9648L15.0508 18.0596C14.8031 18.3017 14.4641 18.4453 13.8848 18.5215C13.2945 18.5991 12.5172 18.5996 11.4287 18.5996H4.57129C3.4828 18.5996 2.7055 18.5991 2.11523 18.5215C1.60827 18.4548 1.28557 18.3363 1.04688 18.1455L0.949219 18.0596C0.702754 17.8185 0.556853 17.4904 0.479492 16.9277C0.400423 16.3526 0.400391 15.5946 0.400391 14.5293V4.4707L0.401367 3.72754C0.405321 3.03792 0.420184 2.50366 0.479492 2.07227C0.547195 1.57982 0.667272 1.2671 0.861328 1.03516L0.949219 0.94043C1.19687 0.698324 1.53586 0.554726 2.11523 0.478516C2.7055 0.400907 3.4828 0.400391 4.57129 0.400391ZM4.57129 13.0117C3.72776 13.0118 3.02838 13.6828 3.02832 14.5293C3.02832 15.3758 3.72772 16.0468 4.57129 16.0469H9.14258C9.98623 16.0469 10.6855 15.3759 10.6855 14.5293C10.6855 13.6828 9.9862 13.0117 9.14258 13.0117H4.57129ZM4.57129 8.54102C3.7278 8.54109 3.02845 9.21219 3.02832 10.0586C3.02832 10.9051 3.72772 11.5761 4.57129 11.5762H11.4287C12.2723 11.5761 12.9717 10.9051 12.9717 10.0586C12.9716 9.21219 12.2722 8.54109 11.4287 8.54102H4.57129ZM4.57129 4.07031C3.72783 4.07039 3.02851 4.74157 3.02832 5.58789C3.02832 6.43438 3.72772 7.10539 4.57129 7.10547H11.4287C12.2723 7.10539 12.9717 6.43437 12.9717 5.58789C12.9715 4.74157 12.2722 4.07039 11.4287 4.07031H4.57129Z" stroke="white" stroke-width="0.8"/>
</svg>
