<svg width="18" height="24" viewBox="0 0 18 24" fill="none" xmlns="http://www.w3.org/2000/svg">
<path d="M5 0.400391H11.3438C11.8723 0.398881 12.3969 0.488639 12.8936 0.666016L13.1045 0.74707C13.5928 0.949227 14.0416 1.23491 14.4316 1.58984L14.5957 1.74609V1.74707L16.252 3.4043L16.2529 3.40527C16.6277 3.77793 16.9344 4.21284 17.1602 4.68945L17.252 4.89551C17.4542 5.38362 17.5699 5.90304 17.5947 6.42969L17.5996 6.65625V19L17.5938 19.2275C17.5399 20.2884 17.1213 21.2986 16.4082 22.0859L16.251 22.251C15.3885 23.1134 14.2187 23.5981 12.999 23.5996H5L4.77246 23.5938C3.71157 23.5399 2.7014 23.1213 1.91406 22.4082L1.74902 22.251C0.886696 21.3886 0.401977 20.2195 0.400391 19V5.00098C0.401852 3.7813 0.886583 2.61146 1.74902 1.74902C2.55756 0.940491 3.63586 0.463912 4.77246 0.40625L5 0.400391ZM5 1.59961C4.09827 1.59961 3.23333 1.95809 2.5957 2.5957C1.95808 3.23332 1.59961 4.09827 1.59961 5V19C1.59961 19.9017 1.95808 20.7667 2.5957 21.4043C3.23333 22.0419 4.09826 22.4004 5 22.4004H13C13.9017 22.4004 14.7667 22.0419 15.4043 21.4043C16.0419 20.7667 16.4004 19.9017 16.4004 19V6.59961H13C12.5757 6.59961 12.1682 6.43189 11.8682 6.13184C11.5681 5.83178 11.4004 5.42434 11.4004 5V1.59961H5ZM13.0928 17.4082C13.2106 17.4269 13.3199 17.4798 13.4062 17.5596L13.4844 17.6484C13.5543 17.7446 13.5937 17.8585 13.5986 17.9756L13.5918 18.0938C13.5674 18.2495 13.4822 18.3886 13.3555 18.4824C12.4102 19.1552 11.2924 19.5424 10.1338 19.5986C9.49811 19.5949 8.88172 19.3804 8.38281 18.9863L8.37207 18.9775L8.36133 18.9697L8.13477 18.8193C8.06169 18.7736 7.99043 18.7332 7.91992 18.7012C7.75931 18.6282 7.60856 18.5996 7.43457 18.5996H7.4043L7.37402 18.6045C6.64369 18.7175 5.95463 19.0156 5.37109 19.4688C5.27607 19.5365 5.16379 19.5741 5.04883 19.5791L4.93359 19.5732C4.77967 19.5501 4.64044 19.4674 4.5459 19.3438C4.47518 19.2512 4.43275 19.1409 4.42383 19.0264L4.42676 18.9102C4.44457 18.7577 4.52003 18.6179 4.6377 18.5195C5.45171 17.8886 6.42741 17.5015 7.45215 17.4014C8.02323 17.4147 8.5747 17.6135 9.02246 17.9688V17.9678C9.32831 18.2352 9.71737 18.3883 10.124 18.3994L10.1445 18.4004L10.165 18.3984C10.9429 18.3401 11.6944 18.1004 12.3604 17.7002L12.6406 17.5195L12.6465 17.5146C12.7432 17.4446 12.858 17.4059 12.9756 17.4014L13.0928 17.4082ZM5 13.4004H13C13.1591 13.4004 13.3113 13.4637 13.4238 13.5762C13.5363 13.6887 13.5996 13.8409 13.5996 14C13.5996 14.1591 13.5363 14.3113 13.4238 14.4238C13.3113 14.5363 13.1591 14.5996 13 14.5996H5C4.88058 14.5996 4.76488 14.5643 4.66699 14.499L4.57617 14.4238C4.46365 14.3113 4.40039 14.1591 4.40039 14C4.40039 13.8806 4.43566 13.7649 4.50098 13.667L4.57617 13.5762C4.68869 13.4637 4.84087 13.4004 5 13.4004ZM5 9.40039H13C13.1591 9.40039 13.3113 9.46365 13.4238 9.57617C13.5363 9.68869 13.5996 9.84087 13.5996 10C13.5996 10.1591 13.5363 10.3113 13.4238 10.4238C13.3113 10.5363 13.1591 10.5996 13 10.5996H5C4.88058 10.5996 4.76488 10.5643 4.66699 10.499L4.57617 10.4238C4.46365 10.3113 4.40039 10.1591 4.40039 10C4.40039 9.88059 4.43565 9.76488 4.50098 9.66699L4.57617 9.57617C4.68869 9.46366 4.84087 9.40039 5 9.40039ZM12.5996 5.40039H16.2422L15.834 4.78027C15.7088 4.59032 15.5645 4.41349 15.4033 4.25293H15.4043L13.748 2.59766L13.7471 2.59668L13.624 2.47949C13.4979 2.36576 13.3631 2.26131 13.2217 2.16699L12.5996 1.75293V5.40039Z" stroke="white" stroke-width="0.8"/>
</svg>
