<svg width="32" height="32" viewBox="0 0 32 32" fill="none" xmlns="http://www.w3.org/2000/svg">
<path d="M8.50522 24.1489C9.70098 23.551 11.0828 23.4782 12.3236 23.9312L12.5697 24.0288L12.8285 24.1479V24.1489L14.5833 25.0269C15.3857 25.428 16.316 25.4678 17.1439 25.147L17.1546 25.1431L17.1654 25.1382L17.3949 25.0366L17.4164 25.0269L19.1712 24.1489C20.4443 23.5123 21.9287 23.4713 23.2289 24.0259L23.4945 24.1479V24.1489L27.0394 25.9214C27.425 26.1144 27.5952 26.5657 27.4456 26.9604L27.4115 27.0386C27.221 27.4195 26.7781 27.5909 26.3871 27.4507L26.2816 27.4058L22.7494 25.6392C21.947 25.2381 21.0168 25.1981 20.1888 25.519L20.1781 25.5229L20.1673 25.5278L19.9378 25.6294L19.9271 25.6343L18.1615 26.5171C16.8879 27.1539 15.4034 27.1944 14.1029 26.6392L13.8382 26.5171L12.0824 25.6392C11.2801 25.2382 10.3497 25.1982 9.52182 25.519L9.51108 25.5229L9.50034 25.5278L9.27182 25.6294L9.25034 25.6392L5.70541 27.4116C5.31973 27.6043 4.85636 27.47 4.63022 27.1138L4.58823 27.0386C4.39811 26.6581 4.52571 26.2011 4.87143 25.9722L4.97202 25.9146L8.50522 24.1489ZM14.6664 3.1665H17.3333C17.7934 3.16658 18.1662 3.53947 18.1664 3.99951V6.18311L18.5843 6.25244L23.0228 6.9917C24.0676 7.16582 24.8333 8.07024 24.8333 9.12939V14.0659L25.1751 14.1802L27.9193 15.0942C28.5263 15.2966 28.8499 15.9453 28.6664 16.5425L28.6234 16.6606V16.6616L25.9398 22.9204L23.9417 21.9214C22.4021 21.1515 20.6071 21.1032 19.0355 21.7769L18.724 21.9214L16.9691 22.7993C16.4352 23.0662 15.8185 23.0991 15.264 22.8989L15.0306 22.7993L13.2757 21.9214C11.736 21.1515 9.94015 21.103 8.3685 21.7769L8.05795 21.9214L6.78647 22.5562L3.47787 16.7661C3.13567 16.167 3.3875 15.4149 3.99545 15.1313L4.12241 15.0806L6.82455 14.1802L7.16635 14.0659V9.12939C7.16635 8.13647 7.83959 7.28038 8.78452 7.03369L8.9769 6.9917L13.4154 6.25244L13.8333 6.18311V3.99951C13.8335 3.5395 14.2063 3.16661 14.6664 3.1665ZM23.1664 8.70557L22.7484 8.63623L16.0824 7.5249L16.0003 7.51123L15.9173 7.5249L9.25131 8.63623L8.83334 8.70557V13.5103L9.49155 13.2905L15.3148 11.3501C15.7041 11.2203 16.1209 11.2039 16.5169 11.3013L16.6849 11.3501L22.5081 13.2905L23.1664 13.5103V8.70557Z" fill="#C2D2F1" stroke="#1D6DB6"/>
</svg>
