<svg width="22" height="17" viewBox="0 0 22 17" fill="none" xmlns="http://www.w3.org/2000/svg">
<path d="M8.99998 1H2C1.44771 1 1 1.4477 1 1.99999V14.9999C1 15.5522 1.44771 15.9999 2 15.9999H19.9999C20.5522 15.9999 20.9999 15.5522 20.9999 14.9999V10.7499" stroke="white" stroke-width="1.5" stroke-linecap="round" stroke-linejoin="round"/>
<path d="M4.00006 7.5H9.00005" stroke="white" stroke-width="1.5" stroke-linecap="round"/>
<path d="M4.00006 11.5H18" stroke="white" stroke-width="1.5" stroke-linecap="round"/>
<path d="M15.9999 6.99997C17.6568 6.99997 18.9999 5.65683 18.9999 3.99998C18.9999 2.34314 17.6568 1 15.9999 1C14.3431 1 12.9999 2.34314 12.9999 3.99998C12.9999 5.65683 14.3431 6.99997 15.9999 6.99997Z" stroke="white" stroke-width="1.5" stroke-linecap="round" stroke-linejoin="round"/>
<path d="M20.9999 10.2093C20.0234 8.30114 18.0764 7 15.834 7C13.1156 7 10.8314 8.91214 10.1838 11.5" stroke="white" stroke-width="1.5" stroke-linecap="round" stroke-linejoin="round"/>
</svg>
